<?xml version="1.0" standalone="no"?>
<!DOCTYPE svg PUBLIC "-//W3C//DTD SVG 20010904//EN"
 "http://www.w3.org/TR/2001/REC-SVG-20010904/DTD/svg10.dtd">
<svg version="1.0" xmlns="http://www.w3.org/2000/svg"
 width="300.000000pt" height="300.000000pt" viewBox="0 0 300.000000 300.000000"
 preserveAspectRatio="xMidYMid meet">
<metadata>
Created by potrace 1.11, written by Peter Selinger 2001-2013
</metadata>
<g transform="translate(0.000000,300.000000) scale(0.100000,-0.100000)"
fill="#000000" stroke="none">
<path d="M1316 2689 c-36 -29 -33 -54 17 -109 24 -26 49 -66 55 -88 7 -24 12
-108 12 -215 l0 -175 -62 -7 c-35 -3 -99 -12 -143 -20 -44 -8 -145 -21 -225
-30 -134 -16 -191 -18 -340 -12 -52 2 -55 1 -58 -23 -2 -14 17 -67 42 -122 54
-114 112 -285 157 -461 26 -103 40 -139 71 -183 56 -78 107 -85 108 -14 0 25
0 26 178 48 97 13 198 26 223 29 l47 5 5 -513 c5 -522 13 -637 44 -671 41 -46
74 -8 92 107 12 75 28 442 37 846 l6 246 157 12 c86 7 233 15 326 18 94 3 180
10 193 14 36 14 28 52 -18 92 l-40 34 56 138 c62 155 99 217 173 290 70 68 70
97 -1 160 -29 25 -83 66 -119 91 -60 40 -73 44 -125 44 -33 0 -75 -5 -94 -10
-27 -8 -474 -80 -495 -80 -15 0 23 274 46 335 26 68 24 88 -13 130 -37 43 -78
65 -172 94 -85 26 -107 26 -140 0z m810 -629 c27 -11 27 -11 22 -88 -4 -57
-20 -121 -62 -246 -31 -93 -61 -176 -65 -184 -7 -12 -64 -25 -213 -49 -111
-18 -209 -32 -215 -33 -14 0 -18 295 -7 471 l7 97 126 12 c116 11 289 25 353
29 15 0 39 -4 54 -9z m-726 -344 l0 -283 -62 -7 c-179 -18 -390 -37 -392 -34
-2 2 -28 115 -60 253 -50 223 -55 251 -41 261 27 20 421 90 518 93 l37 1 0
-284z"/>
</g>
</svg>
